<svg width="48" height="48" viewBox="0 0 48 48" fill="none" xmlns="http://www.w3.org/2000/svg">
<path d="M9.72461 21.8998C8.73402 21.5146 8.23873 21.322 8.09414 21.0445C7.96878 20.8039 7.96861 20.5173 8.09368 20.2765C8.23795 19.9988 8.73302 19.8056 9.72315 19.4192L37.8224 8.45366C38.7163 8.10486 39.163 7.93045 39.4487 8.02585C39.6966 8.1087 39.8913 8.30332 39.9742 8.55133C40.0695 8.8369 39.8951 9.2838 39.5464 10.1776L28.5807 38.2768C28.1944 39.267 28.0012 39.762 27.7235 39.9063C27.4827 40.0314 27.196 40.0312 26.9555 39.9058C26.6779 39.7612 26.4854 39.266 26.1002 38.2753L21.7273 27.0308C21.6491 26.8298 21.61 26.7292 21.5496 26.6446C21.4961 26.5696 21.4304 26.5039 21.3554 26.4505C21.2708 26.3901 21.1702 26.351 20.9691 26.2728L9.72461 21.8998Z" fill="#0088FF"/>
</svg>
